<svg xmlns="http://www.w3.org/2000/svg" xmlns:xlink="http://www.w3.org/1999/xlink" version="1.1" x="0px" y="0px" viewBox="0 0 3710 3710" style="enable-background:new 0 0 3710 3710;" xml:space="preserve">
<g id="Background">
	<g>
		<g>
			<rect style="fill:none;" width="3710" height="3710"/>
		</g>
	</g>
</g>
<g id="Illustration">
	<g>
		<linearGradient id="SVGID_1_" gradientUnits="userSpaceOnUse" x1="3393.8569" y1="3586.2493" x2="1384.0022" y2="1416.882">
			<stop offset="0" style="stop-color:#B37CFF"/>
			<stop offset="1" style="stop-color:#F895E7"/>
		</linearGradient>
		<path style="opacity:0.3;fill:url(#SVGID_1_);" d="M3108.911,2351.762c-275.068,647.723-1001.159,925.936-1570.062,878.5    c-155.334-12.952-467.869-39.012-711.899-271.5c-468.643-446.479-396.467-1379.743,52.158-1929.198    c57.774-70.758,457.675-544.832,1080.845-538.487c456.252,4.646,776.49,264.294,815.43,296.642    c49.191,40.863,157.688,137.967,255.469,292.016C3260.605,1441.698,3280.801,1947,3108.911,2351.762z"/>
		<g>
			<g>
				
					<linearGradient id="SVGID_00000147204757581812532570000010181005983463925900_" gradientUnits="userSpaceOnUse" x1="1160.1427" y1="2239.6782" x2="328.7689" y2="3507.0151">
					<stop offset="0" style="stop-color:#53D8FF"/>
					<stop offset="1" style="stop-color:#3840F7"/>
				</linearGradient>
				<path style="fill:url(#SVGID_00000147204757581812532570000010181005983463925900_);" d="M1072.443,2920.081      c5.413,0,9.541-4.843,8.639-10.18c-8.973-53.096-61.575-295.909-273.4-297.84c-187.667-1.71-301.546,92.037-341.24,131.665      c-7.092,7.08-3.944,19.215,5.718,21.87c25.627,7.044,68.277,24.19,95.645,63.916c41.269,59.904,148.249,50.498,214.905-31.843      c66.032-81.571,230.527-130.431,281.152,115.364C1064.703,2917.122,1068.269,2920.081,1072.443,2920.081L1072.443,2920.081z"/>
				
					<linearGradient id="SVGID_00000027600343149125538760000001827156286688278680_" gradientUnits="userSpaceOnUse" x1="599.1084" y1="1174.1418" x2="882.9912" y2="2380.6458">
					<stop offset="0" style="stop-color:#53D8FF"/>
					<stop offset="1" style="stop-color:#3840F7"/>
				</linearGradient>
				<path style="fill:url(#SVGID_00000027600343149125538760000001827156286688278680_);" d="M561.649,1522.808      c-4.71-10.356-19.893-9.051-22.848,1.936c-26.794,99.635-82.104,397.033,162.378,537.783      c296.248,170.552,303.399,93.412,340.34,393.702c31.795,258.457,42.643,415.627,45.048,454.401      c0.331,5.325,4.741,9.45,10.075,9.45h0c5.711,0,10.287-4.704,10.092-10.412c-2.794-81.373-23.151-619.123-81.31-882.151      C921.979,1559.682,679.751,1782.436,561.649,1522.808z"/>
				
					<linearGradient id="SVGID_00000155123041183826350850000003129043799378357383_" gradientUnits="userSpaceOnUse" x1="717.056" y1="790.9194" x2="1213.8507" y2="2808.5183">
					<stop offset="0" style="stop-color:#53D8FF"/>
					<stop offset="1" style="stop-color:#3840F7"/>
				</linearGradient>
				<path style="fill:url(#SVGID_00000155123041183826350850000003129043799378357383_);" d="M746.562,782.666      c-1.862-10.528-17.082-10.283-18.65,0.294c-7.872,53.098-22.891,120.867-51.005,165.107      c-52.176,82.104-146.957,381.093,113.279,530.153c260.236,149.06,324.228,227.963,322.295,514.21      c-1.767,261.621,13.982,819.917,16.704,914.044c0.22,7.595,6.44,13.608,14.039,13.608l0,0c7.741,0,14.023-6.246,14.045-13.987      c0.346-122.434,2.07-1012.432-20.251-1228.088C1101.649,1336.287,813.494,1161.232,746.562,782.666z"/>
				
					<linearGradient id="SVGID_00000054255958714768617370000018297286589366586533_" gradientUnits="userSpaceOnUse" x1="1428.4296" y1="756.3281" x2="921.4943" y2="2702.9563">
					<stop offset="0" style="stop-color:#53D8FF"/>
					<stop offset="1" style="stop-color:#3840F7"/>
				</linearGradient>
				<path style="fill:url(#SVGID_00000054255958714768617370000018297286589366586533_);" d="M1551.068,485.789      c-0.458-10.438-14.299-13.686-19.436-4.588c-24.798,43.918-80.61,118.831-192.299,173.054      c-167.534,81.334-468.198,249.545-288.906,617.032c186.396,382.046,120.23,648.906,133.074,782.506      c11.894,123.722,24.419,761.211,26.206,854.809c0.122,6.391,5.337,11.479,11.729,11.479l0,0c6.595,0,11.894-5.43,11.728-12.023      c-2.599-103.237-21.04-839.282-21.376-957.122c-0.362-126.781-31.719-560.612,81.594-718.824      C1403.003,1079.051,1568.508,882.672,1551.068,485.789z"/>
				<path style="opacity:0.47;fill:none;" d="M751.004,1008.862c-2.664,8.354-4.679,17.675-6.05,26.746      c-0.833,4.546-1.252,9.165-1.707,13.769c-0.597,4.584-0.628,9.227-0.835,13.839c-0.344,18.456,0.553,36.974,4.353,55.019      c7.116,36.16,23.029,70.112,44.353,100.124c2.707,3.732,5.176,7.636,8.07,11.233l9.018,10.55l9.003,10.557l9.671,10.143      c13.104,13.366,26.975,26.1,41.19,38.581c28.431,24.955,58.265,48.968,86.389,75.357c28.207,26.228,54.6,55.018,76.797,86.938      c10.974,16.035,20.994,32.7,30.05,49.864l6.434,13.047c2.189,4.328,4.237,8.721,6.107,13.191l5.802,13.321l5.217,13.549      c3.655,8.969,6.4,18.246,9.562,27.375c2.894,9.213,5.486,18.516,8.104,27.799c2.24,9.376,4.701,18.707,6.611,28.143      c1.774,9.463,4.001,18.844,5.395,28.36c6.439,37.926,10.055,76.197,11.525,114.47c0.108,2.816-2.087,5.187-4.904,5.294      c-2.751,0.106-5.08-2.019-5.287-4.742c-5.644-75.534-17.926-151.096-45.638-221.041l-5.259-13.053l-5.818-12.8      c-1.872-4.298-3.918-8.51-6.1-12.654l-6.403-12.495c-8.996-16.416-18.891-32.302-29.685-47.569      c-11.009-15.113-22.743-29.693-35.261-43.631c-12.499-13.958-25.942-27.113-39.746-39.935      c-27.63-25.646-57.372-49.32-86.38-74.483c-14.496-12.585-28.802-25.563-42.467-39.343l-10.11-10.493l-9.503-11.236      l-9.487-11.243c-3.05-3.841-5.691-8.018-8.551-12.012c-22.547-32.104-39.053-69.187-45.134-108.223l-1.996-14.646      c-0.542-4.891-0.634-9.83-0.965-14.736c-0.414-4.908-0.292-9.83-0.179-14.748c0.067-4.917,0.224-9.826,0.813-14.712      c0.497-4.889,0.825-9.786,1.726-14.623c0.759-4.849,1.489-9.696,2.643-14.478c1.992-9.677,4.71-18.904,8.602-28.443      c1.128-2.764,4.283-4.089,7.048-2.963c2.625,1.072,3.953,3.971,3.115,6.629L751.004,1008.862z"/>
				<path style="opacity:0.47;fill:none;" d="M567.541,1577.284c2.882,16.745,8.747,33.462,16.271,48.906      c7.744,15.434,16.731,30.168,27.272,43.769c21.034,27.246,47.34,50.063,76.046,69.083c14.208,9.897,29.54,17.647,44.9,26.083      l23.702,12.644c7.825,4.364,15.486,9.047,23.234,13.555c30.632,18.665,60.155,39.417,87.29,63.145      c26.854,24.034,51.46,50.612,72.91,79.583l15.296,22.281c2.671,3.632,4.755,7.641,7.068,11.501l6.801,11.66l6.792,11.657      l5.942,12.107c3.877,8.105,8.02,16.09,11.664,24.287c6.464,16.745,13.961,33.1,18.851,50.366      c2.678,8.543,5.525,17.044,7.855,25.674l6.159,26.102l3.071,13.038l2.233,13.2l4.407,26.384      c1.609,8.768,2.032,17.699,3.018,26.54l2.566,26.562c0.185,1.917-1.219,3.623-3.137,3.808c-1.845,0.177-3.492-1.115-3.78-2.92      l-0.038-0.239c-2.741-17.429-4.971-34.911-8.076-52.215l-5.354-25.821l-2.695-12.893l-3.52-12.687l-7.024-25.343      c-2.594-8.363-5.782-16.53-8.529-24.832c-5.152-16.752-12.855-32.497-19.494-48.629c-3.727-7.882-7.939-15.533-11.876-23.307      l-6.022-11.598l-6.846-11.127l-6.837-11.122c-2.322-3.68-4.412-7.507-7.084-10.952l-15.261-21.159      c-21.308-27.47-45.083-52.969-71.326-75.83c-26.555-22.496-55.014-42.744-84.935-60.753      c-7.565-4.368-15.028-8.905-22.674-13.141l-23.192-12.285c-15.628-8.673-31.818-17.186-46.613-27.695      c-29.885-20.515-56.999-45.78-77.74-75.816c-10.143-15.143-18.973-31.193-25.418-48.198c-3.193-8.513-5.958-17.164-8.023-26.003      c-2.229-8.83-3.467-17.732-3.803-27.08c-0.059-1.638,1.221-3.013,2.859-3.072c1.502-0.052,2.784,1.02,3.031,2.464      L567.541,1577.284z"/>
				<path style="opacity:0.47;fill:none;" d="M553.853,2716.253c14.427-12.371,30.088-22.849,46.364-32.451      c8.152-4.761,16.46-9.276,24.954-13.433c8.451-4.247,17.08-8.163,25.869-11.701c17.5-7.287,35.625-13.108,54.06-17.804      c18.487-4.515,37.37-7.509,56.383-9.097c19.011-1.625,38.221-1.414,57.218,0.719c18.983,2.084,37.836,5.868,55.94,11.912      l6.814,2.165l6.648,2.636c4.412,1.797,8.886,3.432,13.229,5.366c8.553,4.174,17.257,8.012,25.289,13.1      c16.565,9.249,31.671,20.753,46.038,32.837c1.115,0.938,1.259,2.604,0.321,3.719c-0.871,1.036-2.37,1.233-3.473,0.502      l-0.128-0.085c-15.395-10.279-30.697-20.594-47.393-28.284c-8.103-4.296-16.744-7.395-25.105-11.028      c-4.259-1.633-8.633-2.961-12.934-4.458l-6.47-2.181l-6.607-1.737c-17.459-5.175-35.533-7.85-53.59-9.436      c-4.533-0.261-9.039-0.855-13.585-0.855l-13.618-0.215c-9.081,0.321-18.159,0.552-27.21,1.493      c-36.261,3.187-71.837,12.591-106.235,25.104c-34.367,12.636-67.854,28.57-99.596,47.424l-0.112,0.067      c-1.255,0.745-2.876,0.333-3.621-0.922C552.635,2718.487,552.895,2717.073,553.853,2716.253z"/>
				<path style="opacity:0.33;fill:none;" d="M1486.962,598.437c-11.66,16.372-24.259,31.92-37.374,47.073      c-13.009,15.245-26.754,29.836-40.74,44.203l-10.614,10.655l-10.83,10.438c-7.18,7.007-14.564,13.8-22.008,20.529      c-14.944,13.395-30.239,26.415-45.891,39.014c-7.855,6.26-15.929,12.247-23.885,18.385      c-8.021,6.054-16.275,11.802-24.403,17.719c-16.26,11.42-32.017,22.804-46.909,35.486      c-29.84,25.085-55.929,54.344-75.493,87.668c-9.764,16.648-17.997,34.224-24.297,52.542      c-6.341,18.305-10.85,37.246-14.169,56.433c-3.449,19.185-4.775,38.758-5.514,58.331l-0.219,14.713      c-0.065,4.907,0.211,9.82,0.299,14.733c0.11,9.828,0.898,19.648,1.474,29.48c6.175,78.706,25.401,156.317,48.586,232.374      c0.337,1.099-0.279,2.262-1.378,2.6c-1.056,0.325-2.175-0.242-2.561-1.261c-13.952-37.397-26.127-75.499-36.328-114.216      c-10.198-38.705-18.214-78.145-22.348-118.231c-4.121-40.044-4.572-80.796,1.289-121.138      c2.969-20.143,7.606-40.108,14.006-59.565c6.406-19.459,14.897-38.268,25.047-56.113c20.28-35.813,48.159-66.775,79.07-93.106      c15.411-13.21,31.88-25.335,48.25-36.767c8.031-5.731,16.188-11.292,24.123-17.166c7.873-5.957,15.864-11.762,23.645-17.845      c7.712-6.172,15.668-12.04,23.319-18.299c7.612-6.302,15.421-12.377,22.881-18.87c15.124-12.745,30.176-25.619,44.719-39.064      c14.774-13.208,29.106-26.909,43.323-40.754c14.103-13.937,28.221-27.989,41.668-42.56l0.036-0.039      c0.78-0.847,2.097-0.9,2.943-0.12C1487.458,596.419,1487.563,597.594,1486.962,598.437z"/>
			</g>
			
				<linearGradient id="SVGID_00000056399631559895176220000010478357460384860063_" gradientUnits="userSpaceOnUse" x1="1356.9976" y1="2574.792" x2="754.9203" y2="3768.9131">
				<stop offset="0" style="stop-color:#CB236D"/>
				<stop offset="1" style="stop-color:#4C246D"/>
			</linearGradient>
			<path style="fill:url(#SVGID_00000056399631559895176220000010478357460384860063_);" d="M988.952,2896.813h331.591     c24.82,0,43.385,23.361,38.778,47.748c-19.799,104.789-59.899,197.37-101.579,274.823c-9.311,17.303-27.341,28.353-46.991,28.353     h-108.202c-19.951,0-38.248-10.849-47.857-28.333c-52.024-94.664-77.451-188.599-98.666-280.515     C951.137,2917.71,967.217,2896.813,988.952,2896.813z"/>
		</g>
		<g>
			<g>
				
					<linearGradient id="SVGID_00000116945761061625394420000004422589626319068347_" gradientUnits="userSpaceOnUse" x1="-3579.8137" y1="2353.1504" x2="-2799.8525" y2="2079.6572" gradientTransform="matrix(-1 0 0 1 -761.4195 0)">
					<stop offset="0" style="stop-color:#CB236D"/>
					<stop offset="1" style="stop-color:#4C246D"/>
				</linearGradient>
				<path style="fill:url(#SVGID_00000116945761061625394420000004422589626319068347_);" d="M2541.615,2688.127      c14.448-265.149,43.659-507.1,107.133-652.545c20.272-46.452,59.356-81.794,107.513-97.593      c130.393-42.776,266.007-23.384,243.669,97.032l-288.747,749.512L2541.615,2688.127z"/>
				<g>
					<g>
						
							<linearGradient id="SVGID_00000070111955736869828580000005058031392894658944_" gradientUnits="userSpaceOnUse" x1="3039.9746" y1="2845.0496" x2="3312.3384" y2="2845.0496" gradientTransform="matrix(1 0 0 1 -1104.4598 0)">
							<stop offset="0" style="stop-color:#F9B776"/>
							<stop offset="1" style="stop-color:#F47960"/>
						</linearGradient>
						<path style="fill:url(#SVGID_00000070111955736869828580000005058031392894658944_);" d="M2070.759,2505.207        c0,0-56.92,8.824-120.917,51.605c-10.072,6.732-15.596,18.469-14.079,30.489c7.664,60.699,39.171,257.166,143.068,449.056        c5.479,10.118,7.053,21.897,4.636,33.146l-18.051,84.002l-33.474,31.387h86.222l57.408-155.357l-24.548-7.762        c-19.033-6.019-32.092-23.525-32.437-43.485l-2.88-166.655c2.457-74.249-45.527-125.478-45.527-125.478l137.699-6.699        L2070.759,2505.207z"/>
						
							<linearGradient id="SVGID_00000018210094053939658480000015587519341134095016_" gradientUnits="userSpaceOnUse" x1="3206.6235" y1="3022.5222" x2="3166.5632" y2="3636.7805" gradientTransform="matrix(1 0 0 1 -1104.4598 0)">
							<stop offset="0" style="stop-color:#CB236D"/>
							<stop offset="1" style="stop-color:#4C246D"/>
						</linearGradient>
						<path style="fill:url(#SVGID_00000018210094053939658480000015587519341134095016_);" d="M1998.274,3200.047        c-7.852,10.277,84.513,23.838,131.179,1.359c0,0,64.689-112.549,64.689-170.497c0,0-5.135-11.815-43.118-9.136        c0,0-21.72,133.264-44.655,148.192c-22.935,14.927-64.167,1.51-64.167,1.51S2009.86,3184.884,1998.274,3200.047z"/>
						
							<linearGradient id="SVGID_00000132086475493059047390000004191248465222210442_" gradientUnits="userSpaceOnUse" x1="2760.5645" y1="2869.7502" x2="3335.3064" y2="2869.7502" gradientTransform="matrix(1 0 0 1 -1104.4598 0)">
							<stop offset="0" style="stop-color:#F9B776"/>
							<stop offset="1" style="stop-color:#F47960"/>
						</linearGradient>
						<path style="fill:url(#SVGID_00000132086475493059047390000004191248465222210442_);" d="M2230.847,2694.693        c-0.733-1.268-148.254-17.738-148.254-17.738s4.828,44.854-10.26,106.6s-231.682,329.262-231.682,329.262l22.71,71.993        c-70.218,24.46-139.289,28.371-207.255,12.468l140.745-84.462c0,0,131.722-448.883,212.405-528.962l147.873-51.159        L2230.847,2694.693z"/>
						
							<linearGradient id="SVGID_00000012463264850563748520000003330715550658987453_" gradientUnits="userSpaceOnUse" x1="3102.2634" y1="2594.8882" x2="3785.1467" y2="2594.8882" gradientTransform="matrix(1 0 0 1 -1104.4598 0)">
							<stop offset="0" style="stop-color:#FDF53F"/>
							<stop offset="0.6645" style="stop-color:#E57A58"/>
							<stop offset="1" style="stop-color:#D93C65"/>
						</linearGradient>
						<path style="fill:url(#SVGID_00000012463264850563748520000003330715550658987453_);" d="M2587.756,2458.465        c0,0,84.994,126.418,91.969,184.083c6.974,57.666-23.282,81.098-112.462,84.962s-425.438,3.801-425.438,3.801        c-116.178-86.174-121.605-136.618-144.02-201.578c0,0,17.047-29.035,225.587-39.856        C2264.631,2487.737,2587.756,2458.465,2587.756,2458.465z"/>
						
							<linearGradient id="SVGID_00000132806214800478347010000016126399511590186157_" gradientUnits="userSpaceOnUse" x1="2856.1355" y1="3002.9133" x2="2814.2786" y2="3644.7207" gradientTransform="matrix(1 0 0 1 -1104.4598 0)">
							<stop offset="0" style="stop-color:#CB236D"/>
							<stop offset="1" style="stop-color:#4C246D"/>
						</linearGradient>
						<path style="fill:url(#SVGID_00000132806214800478347010000016126399511590186157_);" d="M1854.91,3167.121        c0,0,25.547,24.744,8.289,52.274c0,0-202.375,35.871-257.321,19.596c0,0,11.409-26.041,73.281-55.681l-4.565,3.504        c-5.777,4.435-2.389,13.674,4.882,13.259C1720.246,3197.749,1804.621,3190.28,1854.91,3167.121z"/>
					</g>
					<g>
						
							<linearGradient id="SVGID_00000172417957215577495520000005511576948398274220_" gradientUnits="userSpaceOnUse" x1="3823.8669" y1="951.3624" x2="3729.0554" y2="1449.4576" gradientTransform="matrix(0.9849 0.1732 -0.1732 0.9849 -969.506 -75.1231)">
							<stop offset="0" style="stop-color:#2B3582"/>
							<stop offset="1" style="stop-color:#150E42"/>
						</linearGradient>
						<path style="fill:url(#SVGID_00000172417957215577495520000005511576948398274220_);" d="M2341.404,1612.476        c176.23,1.009,232.241,154.74,221.196,183.028c-1.465,3.753,1.622,7.688,5.635,7.331c20.574-1.832,65.146-0.865,86.118,37.578        c18.516,33.941-4.174,58.904-21.358,71.775c-4.149,3.108-2.275,9.67,2.904,9.922c36.92,1.795,115.593,14.507,115.501,90.285        c-0.086,70.665-51.206,81.604-80.465,82.076c-4.951,0.08-7.178,6.176-3.52,9.513c12.544,11.441,25.646,32.826,12.61,68.191        c-20.431,55.428-131.851,30.997-144.838,27.943c-0.823-0.193-1.566-0.571-2.217-1.111l-161.748-134.161        c-1.261-1.046-1.989-2.6-1.984-4.238l0.578-216.001c0.004-1.747,0.84-3.387,2.252-4.418l-88.109-186.019        C2242.513,1640.424,2339.327,1612.464,2341.404,1612.476z"/>
						
							<linearGradient id="SVGID_00000114787964905681184930000006470334377803698863_" gradientUnits="userSpaceOnUse" x1="3653.8613" y1="1493.6506" x2="3959.2563" y2="2158.3328" gradientTransform="matrix(0.9849 0.1732 -0.1732 0.9849 -969.506 -75.1231)">
							<stop offset="0" style="stop-color:#FDF53F"/>
							<stop offset="0.6645" style="stop-color:#E57A58"/>
							<stop offset="1" style="stop-color:#D93C65"/>
						</linearGradient>
						<path style="fill:url(#SVGID_00000114787964905681184930000006470334377803698863_);" d="M2341.624,2409.554        c0,0-81.151-109.967-118.32-179.886c-20.091-37.795-20.541-82.977-1.436-121.281c34.889-69.952,87.268-139.546,92.912-150.818        c8.649-17.279,117.815,2.707,117.815,2.707s190.525,177.423,233.437,428.741l-100.103,12.852        c0,0-39.584-104.093-84.534-173.753c0,0,73.7,143.725,67.948,196.242L2341.624,2409.554z"/>
						
							<linearGradient id="SVGID_00000179608351941307225530000000248519177622592927_" gradientUnits="userSpaceOnUse" x1="3666.9653" y1="1574.5269" x2="3628.1689" y2="1325.5852" gradientTransform="matrix(0.9849 0.1732 -0.1732 0.9849 -969.506 -75.1231)">
							<stop offset="0" style="stop-color:#F9B776"/>
							<stop offset="1" style="stop-color:#F47960"/>
						</linearGradient>
						<path style="fill:url(#SVGID_00000179608351941307225530000000248519177622592927_);" d="M2319.49,1853.326        c0.474,3.992,12.366,103.583,14.252,105.938c1.886,2.355,61.646,16.213,93.458,1.8l-46.204-150.175L2319.49,1853.326z"/>
						<g>
							
								<linearGradient id="SVGID_00000165210743091543698330000012932304108107546551_" gradientUnits="userSpaceOnUse" x1="1127.7079" y1="6591.8462" x2="1381.647" y2="6764.333" gradientTransform="matrix(0.7331 -0.6801 0.6801 0.7331 -3102.4934 -2251.2249)">
								<stop offset="0" style="stop-color:#F9B776"/>
								<stop offset="1" style="stop-color:#F47960"/>
							</linearGradient>
							<path style="fill:url(#SVGID_00000165210743091543698330000012932304108107546551_);" d="M2226.502,1711.688         c0,0-23.318,51.752,2.008,131.329s68.52,87.096,96.227,67.925c27.708-19.172,63.777-53.629,69.255-125.295         C2399.471,1713.981,2258.535,1646.268,2226.502,1711.688z"/>
							
								<linearGradient id="SVGID_00000046333927750235016490000007538437442428571292_" gradientUnits="userSpaceOnUse" x1="1297.1044" y1="6385.5342" x2="1202.2942" y2="6883.624" gradientTransform="matrix(0.7331 -0.6801 0.6801 0.7331 -3102.4934 -2251.2249)">
								<stop offset="0" style="stop-color:#2B3582"/>
								<stop offset="1" style="stop-color:#150E42"/>
							</linearGradient>
							<path style="fill:url(#SVGID_00000046333927750235016490000007538437442428571292_);" d="M2340.557,1780.193         c0,0-46.266-107.879-119.009-42.175l-5.945,27.503c0,0-68.052-20.476-44.678-82.07         c23.374-61.595,90.456-90.861,162.955-49.646s111.849,77.323,107.089,133.638c-4.76,56.315-46.727,36.401-46.727,36.401         s-7.519-41.566-27.259-49.222c-19.74-7.657-19.778,23.721-19.778,23.721L2340.557,1780.193z"/>
							
								<linearGradient id="SVGID_00000027606798662384738340000014614659184832245149_" gradientUnits="userSpaceOnUse" x1="1142.9293" y1="6569.438" x2="1396.8671" y2="6741.9238" gradientTransform="matrix(0.7331 -0.6801 0.6801 0.7331 -3102.4934 -2251.2249)">
								<stop offset="0" style="stop-color:#F9B776"/>
								<stop offset="1" style="stop-color:#F47960"/>
							</linearGradient>
							<path style="fill:url(#SVGID_00000027606798662384738340000014614659184832245149_);" d="M2356.99,1781.744         c0,0-24.107-55.315,10.824-56.786c34.933-1.472,19.922,53.273,12.67,73.222L2356.99,1781.744z"/>
						</g>
						
							<linearGradient id="SVGID_00000081612057301500406450000004424457822998005394_" gradientUnits="userSpaceOnUse" x1="3826.25" y1="1857.1976" x2="4366.1445" y2="1857.1976" gradientTransform="matrix(0.9849 0.1732 -0.1732 0.9849 -969.506 -75.1231)">
							<stop offset="0" style="stop-color:#F9B776"/>
							<stop offset="1" style="stop-color:#F47960"/>
						</linearGradient>
						<path style="fill:url(#SVGID_00000081612057301500406450000004424457822998005394_);" d="M2141.823,2381.513l83.763-56.433        l91.714,59.283c0,0,95.931,32.627,155.063,27.277c59.132-5.351,59.132-5.351,59.132-5.351l134.536-17.272l10.073,60.139        c2.557,15.268-5.361,30.327-19.343,36.973c-12.414,5.9-26.865,12.243-35.744,14.399        c-18.09,4.394-413.178-77.922-413.178-77.922L2141.823,2381.513z"/>
					</g>
					<g>
						
							<linearGradient id="SVGID_00000059279189521096548600000008435662340066630794_" gradientUnits="userSpaceOnUse" x1="3586.5088" y1="2629.2627" x2="3246.6372" y2="2722.4126" gradientTransform="matrix(0.9988 -0.0494 0.0494 0.9988 -1145.9288 -55.0328)">
							<stop offset="0" style="stop-color:#2B3582"/>
							<stop offset="1" style="stop-color:#150E42"/>
						</linearGradient>
						<path style="fill:url(#SVGID_00000059279189521096548600000008435662340066630794_);" d="M2494.594,2505.981        c-0.323,0.016-0.646,0.025-0.97,0.022l-421.831-0.46c-10.428-0.008-18.872-8.471-18.862-18.899        c0.01-10.432,8.503-19.049,18.903-18.862l421.831,0.46c10.428,0.009,18.872,8.471,18.862,18.899        C2512.515,2497.245,2504.57,2505.488,2494.594,2505.981z"/>
						
							<linearGradient id="SVGID_00000165950584317438730130000007419697950963664545_" gradientUnits="userSpaceOnUse" x1="3210.6213" y1="2174.3411" x2="2969.467" y2="2429.2263" gradientTransform="matrix(1 0 0 1 -1104.4598 0)">
							<stop offset="0" style="stop-color:#2B3582"/>
							<stop offset="1" style="stop-color:#150E42"/>
						</linearGradient>
						<path style="fill:url(#SVGID_00000165950584317438730130000007419697950963664545_);" d="M1692.584,2122.984h351.305        c25.915,0,49.504,14.956,60.558,38.396l162.407,344.376h-436.577c-16.701,0-31.706-10.204-37.844-25.736l-125.94-318.669        C1659.216,2142.938,1672.785,2122.984,1692.584,2122.984z"/>
						
							<linearGradient id="SVGID_00000119093525781274503090000007199015044280756382_" gradientUnits="userSpaceOnUse" x1="3064.8328" y1="2237.8059" x2="2955.4121" y2="2402.5806" gradientTransform="matrix(1 0 0 1 -1104.4598 0)">
							<stop offset="0" style="stop-color:#53D8FF"/>
							<stop offset="1" style="stop-color:#3840F7"/>
						</linearGradient>
						<path style="fill:url(#SVGID_00000119093525781274503090000007199015044280756382_);" d="M1940.081,2299.557        c7.613,23.652,1.989,46.622-12.562,51.306c-14.55,4.683-32.517-10.694-40.13-34.346c-7.613-23.652-1.989-46.622,12.562-51.306        C1914.502,2260.528,1932.468,2275.904,1940.081,2299.557z"/>
					</g>
				</g>
				<g>
					
						<linearGradient id="SVGID_00000039852193120291882890000014684424125004672911_" gradientUnits="userSpaceOnUse" x1="11135.6523" y1="3221.3035" x2="11219.7529" y2="2692.2817" gradientTransform="matrix(-1 0 0 1 13675.626 0)">
						<stop offset="0" style="stop-color:#CB236D"/>
						<stop offset="1" style="stop-color:#4C246D"/>
					</linearGradient>
					
						<rect x="2490.143" y="2819.834" style="fill:url(#SVGID_00000039852193120291882890000014684424125004672911_);" width="38.911" height="420.8"/>
					
						<linearGradient id="SVGID_00000073714165027868638000000002039002904439587999_" gradientUnits="userSpaceOnUse" x1="11168.2979" y1="3224.72" x2="11255.3994" y2="2676.8225" gradientTransform="matrix(-1 0 0 1 13675.626 0)">
						<stop offset="0" style="stop-color:#CB236D"/>
						<stop offset="1" style="stop-color:#4C246D"/>
					</linearGradient>
					<path style="fill:url(#SVGID_00000073714165027868638000000002039002904439587999_);" d="M2339.197,3248.747h340.805v-18.983       c0-3.505-2.841-6.346-6.346-6.346h-327.618c-3.778,0-6.84,3.063-6.84,6.84V3248.747z"/>
					
						<linearGradient id="SVGID_00000081614828243005351170000016374040324203098773_" gradientUnits="userSpaceOnUse" x1="2297.9766" y1="3097.9294" x2="2736.1118" y2="2425.6748">
						<stop offset="0" style="stop-color:#CB236D"/>
						<stop offset="1" style="stop-color:#4C246D"/>
					</linearGradient>
					<path style="fill:url(#SVGID_00000081614828243005351170000016374040324203098773_);" d="M2274.748,2804.312       c0,24.459,20.012,44.471,44.471,44.471h366.446c24.459,0,44.471-20.012,44.471-44.471v-40.211       c0-24.459-20.012-44.471-44.471-44.471h-366.446c-24.459,0-44.471,20.012-44.471,44.471V2804.312z"/>
				</g>
			</g>
			<g>
				<g>
					
						<linearGradient id="SVGID_00000062886189451988016330000013144338692052318393_" gradientUnits="userSpaceOnUse" x1="-2478.553" y1="1102.9883" x2="-1605.6714" y2="-231.4179" gradientTransform="matrix(-1 0 0 1 -931.4438 0)">
						<stop offset="0" style="stop-color:#18459F"/>
						<stop offset="1" style="stop-color:#2874B5"/>
					</linearGradient>
					<path style="fill:url(#SVGID_00000062886189451988016330000013144338692052318393_);" d="M2844.473,3238.381       c1.718,0,3.464-0.375,5.144-1.162c6.612-3.105,9.667-11.472,6.822-18.689l-273.342-693.559       c-2.843-7.214-10.505-10.546-17.123-7.446c-6.612,3.105-9.667,11.472-6.822,18.689l273.342,693.559       C2834.616,3235.156,2839.423,3238.381,2844.473,3238.381z"/>
					
						<linearGradient id="SVGID_00000134208824506895167900000016790237204933715377_" gradientUnits="userSpaceOnUse" x1="-2454.3362" y1="1118.8262" x2="-1581.4532" y2="-215.5818" gradientTransform="matrix(-1 0 0 1 -931.4438 0)">
						<stop offset="0" style="stop-color:#18459F"/>
						<stop offset="1" style="stop-color:#2874B5"/>
					</linearGradient>
					<path style="fill:url(#SVGID_00000134208824506895167900000016790237204933715377_);" d="M2536.542,3238.381       c5.051,0,9.857-3.223,11.979-8.608l273.342-693.559c2.845-7.217-0.21-15.584-6.822-18.689       c-6.608-3.105-14.276,0.227-17.123,7.446l-273.342,693.559c-2.844,7.217,0.21,15.584,6.822,18.689       C2533.075,3238.006,2534.823,3238.381,2536.542,3238.381z"/>
					
						<linearGradient id="SVGID_00000028312849848253654280000011712728907599623307_" gradientUnits="userSpaceOnUse" x1="-1663.709" y1="1636" x2="-790.8274" y2="301.5938" gradientTransform="matrix(-1 0 0 1 -931.4438 0)">
						<stop offset="0" style="stop-color:#18459F"/>
						<stop offset="1" style="stop-color:#2874B5"/>
					</linearGradient>
					<path style="fill:url(#SVGID_00000028312849848253654280000011712728907599623307_);" d="M1680.968,3238.381       c1.718,0,3.464-0.375,5.144-1.162c6.612-3.105,9.667-11.472,6.822-18.689l-273.342-693.559       c-2.845-7.214-10.503-10.546-17.123-7.446c-6.612,3.105-9.667,11.472-6.822,18.689l273.342,693.559       C1671.11,3235.156,1675.917,3238.381,1680.968,3238.381z"/>
					
						<linearGradient id="SVGID_00000069363265674399500860000008393057247394265531_" gradientUnits="userSpaceOnUse" x1="-1639.4967" y1="1651.8412" x2="-766.6139" y2="317.4332" gradientTransform="matrix(-1 0 0 1 -931.4438 0)">
						<stop offset="0" style="stop-color:#18459F"/>
						<stop offset="1" style="stop-color:#2874B5"/>
					</linearGradient>
					<path style="fill:url(#SVGID_00000069363265674399500860000008393057247394265531_);" d="M1373.038,3238.381       c5.051,0,9.858-3.223,11.979-8.608l273.342-693.559c2.845-7.217-0.21-15.584-6.822-18.689       c-6.608-3.105-14.276,0.227-17.123,7.446l-273.342,693.559c-2.845,7.217,0.21,15.584,6.822,18.689       C1369.572,3238.006,1371.32,3238.381,1373.038,3238.381z"/>
				</g>
				
					<linearGradient id="SVGID_00000159465607320054298330000007737304569836966305_" gradientUnits="userSpaceOnUse" x1="-2260.0483" y1="1245.9225" x2="-1387.1665" y2="-88.4839" gradientTransform="matrix(-1 0 0 1 -931.4438 0)">
					<stop offset="0" style="stop-color:#18459F"/>
					<stop offset="1" style="stop-color:#2874B5"/>
				</linearGradient>
				<path style="fill:url(#SVGID_00000159465607320054298330000007737304569836966305_);" d="M1341.042,2505.006      c-0.899-4.035,0.325-8.208,3.336-11.377c3.012-3.17,7.496-5.006,12.228-5.006h1602.981c6.223,0,12.017,2.755,15.37,7.308      c3.353,4.553,3.802,10.276,1.193,15.183l-17.371,32.652c-3.978,7.478-12.597,12.265-22.081,12.265H1367.605      c-8.822,0-16.406-5.433-18.081-12.956L1341.042,2505.006z"/>
			</g>
		</g>
		<g>
			<g>
				<g>
					<g>
						
							<linearGradient id="SVGID_00000029735434219333279290000006136694353766411188_" gradientUnits="userSpaceOnUse" x1="-2621.4409" y1="863.9108" x2="-2327.8262" y2="1511.4033" gradientTransform="matrix(0.9982 0.0603 -0.0407 0.674 5174.9619 398.3538)">
							<stop offset="0" style="stop-color:#53D8FF"/>
							<stop offset="1" style="stop-color:#3840F7"/>
						</linearGradient>
						<path style="fill:url(#SVGID_00000029735434219333279290000006136694353766411188_);" d="M2590.601,1202.475        c0,0-120.745-278.939-29.327-572.806c0.597-1.919,3.993-1.55,4.243,0.465        C2587.555,807.867,2594.126,1000.355,2590.601,1202.475z"/>
						<path style="fill:none;" d="M2590.12,1196.602c-0.677,0-1.299-0.445-1.492-1.13c-21.421-76.102-29.568-205.419-32.63-300.5        c-3.316-102.967-1.552-189.08-1.534-189.937c0.018-0.854,0.587-1.526,1.584-1.517c0.855,0.018,1.535,0.727,1.517,1.584        c-0.018,0.857-1.781,86.9,1.532,189.785c3.058,94.905,11.179,223.943,32.516,299.742c0.232,0.824-0.248,1.681-1.074,1.914        C2590.402,1196.584,2590.26,1196.602,2590.12,1196.602z"/>
					</g>
					<g>
						
							<linearGradient id="SVGID_00000162330046208221937010000011949845171546791063_" gradientUnits="userSpaceOnUse" x1="-2564.1714" y1="749.7939" x2="-2274.8167" y2="1387.8918" gradientTransform="matrix(0.988 0.1543 -0.1266 0.8104 5239.6157 485.2058)">
							<stop offset="0" style="stop-color:#53D8FF"/>
							<stop offset="1" style="stop-color:#3840F7"/>
						</linearGradient>
						<path style="fill:url(#SVGID_00000162330046208221937010000011949845171546791063_);" d="M2618.251,1157.016        c0,0-74.591-342.249,66.378-688.588c0.921-2.262,4.27-1.599,4.183,0.833C2681.21,683.762,2655.606,914.943,2618.251,1157.016z        "/>
						<path style="fill:none;" d="M2619.01,1149.636c-0.791,0-1.466-0.603-1.542-1.405        c-16.788-177.101,47.087-585.886,47.734-589.996c0.133-0.842,0.916-1.43,1.773-1.29c0.847,0.133,1.425,0.927,1.292,1.775        c-0.646,4.104-64.463,412.508-47.713,589.221c0.082,0.851-0.544,1.608-1.396,1.69        C2619.108,1149.633,2619.058,1149.636,2619.01,1149.636z"/>
					</g>
					<g>
						
							<linearGradient id="SVGID_00000092448807716466285560000007121682888484102529_" gradientUnits="userSpaceOnUse" x1="-2485.519" y1="926.392" x2="-2197.7905" y2="1560.9034" gradientTransform="matrix(0.9571 0.2897 -0.2008 0.6634 5237.4668 968.2844)">
							<stop offset="0" style="stop-color:#53D8FF"/>
							<stop offset="1" style="stop-color:#3840F7"/>
						</linearGradient>
						<path style="fill:url(#SVGID_00000092448807716466285560000007121682888484102529_);" d="M2630.087,1249.817        c0,0-35.736-298.566,141.789-567.251c1.159-1.755,4.392-0.681,4.038,1.345        C2744.653,862.635,2693.774,1052.567,2630.087,1249.817z"/>
						<path style="fill:none;" d="M2631.827,1243.995c-0.011,0-0.021,0-0.032,0c-0.856-0.018-1.536-0.727-1.519-1.581        c1.59-79.04,32.097-207.421,57.409-301.199c27.413-101.556,54.803-185.536,55.077-186.372c0.265-0.815,1.142-1.26,1.955-0.993        c0.815,0.266,1.259,1.142,0.992,1.956c-0.272,0.836-27.642,84.753-55.033,186.232        c-25.266,93.605-55.716,221.714-57.299,300.436C2633.361,1243.32,2632.669,1243.995,2631.827,1243.995z"/>
					</g>
				</g>
				
					<linearGradient id="SVGID_00000017480748600730492460000011927162032515253125_" gradientUnits="userSpaceOnUse" x1="-1219.4873" y1="1397.5271" x2="-698.5297" y2="592.8344" gradientTransform="matrix(-1 0 0 1 1574.4001 0)">
					<stop offset="0" style="stop-color:#A737D5"/>
					<stop offset="1" style="stop-color:#EF497A"/>
				</linearGradient>
				<path style="fill:url(#SVGID_00000017480748600730492460000011927162032515253125_);" d="M2539.446,1084.573h164.111      c12.284,0,21.472,11.562,19.192,23.631c-9.799,51.862-29.645,97.682-50.273,136.015c-4.608,8.563-13.532,14.032-23.257,14.032      h-53.552c-9.874,0-18.93-5.369-23.685-14.023c-25.748-46.851-38.332-93.341-48.832-138.832      C2520.73,1094.916,2528.689,1084.573,2539.446,1084.573z"/>
			</g>
			<g>
				<g>
					<g>
						
							<linearGradient id="SVGID_00000053526344136022276140000017343609609106286242_" gradientUnits="userSpaceOnUse" x1="2281.9382" y1="666.4092" x2="2192.4622" y2="831.477">
							<stop offset="0" style="stop-color:#A737D5"/>
							<stop offset="1" style="stop-color:#EF497A"/>
						</linearGradient>
						<path style="fill:url(#SVGID_00000053526344136022276140000017343609609106286242_);" d="M2188.612,819.511        c0,0-12.909-80.319,26.521-106.299c1.753-1.155,4.099,0.158,4.099,2.258v15.269c0,3.649,4.346,5.53,7.002,3.027        c8.491-8.001,23.677-20.152,39.782-22.683c4.296-0.675,7.648,3.612,5.805,7.551c-9.88,21.118-35.747,80.303-34.756,119.074        L2188.612,819.511z"/>
						
							<linearGradient id="SVGID_00000102528291672136535580000018375624354619176071_" gradientUnits="userSpaceOnUse" x1="2479.8967" y1="330.9448" x2="2172.2488" y2="1134.2471">
							<stop offset="0" style="stop-color:#A737D5"/>
							<stop offset="1" style="stop-color:#EF497A"/>
						</linearGradient>
						<path style="fill:url(#SVGID_00000102528291672136535580000018375624354619176071_);" d="M2146.747,819.49l-26.395,421.971        h158.163V831.271c0-11.799-7.526-22.247-18.691-26.063c-20.93-7.153-56.515-16.08-91.462-9.874        C2156.448,797.45,2147.502,807.412,2146.747,819.49z"/>
						<path style="opacity:0.38;fill:none;" d="M2147.166,1085.235l-5.358,117.661c-0.444,9.752,7.342,17.901,17.104,17.901        h79.899c9.456,0,17.122-7.666,17.122-17.122v-117.661c0-9.456-7.666-17.122-17.122-17.122h-74.541        C2155.117,1068.892,2147.583,1076.092,2147.166,1085.235z"/>
					</g>
					<g>
						
							<linearGradient id="SVGID_00000015322651899563861400000009712173538597205945_" gradientUnits="userSpaceOnUse" x1="2477.4233" y1="769.0892" x2="2162.7163" y2="1406.2172">
							<stop offset="0" style="stop-color:#B37CFF"/>
							<stop offset="1" style="stop-color:#F895E7"/>
						</linearGradient>
						<path style="fill:url(#SVGID_00000015322651899563861400000009712173538597205945_);" d="M2430.81,1207.735V805.268        c0-10.884-7.065-20.575-17.474-23.755c-46.568-14.229-87.074-6.261-108.335,0.347c-9.423,2.929-15.857,11.611-15.857,21.478        v438.122h107.941C2415.711,1241.46,2430.81,1226.361,2430.81,1207.735z"/>
						<path style="opacity:0.38;fill:none;" d="M2303.163,812.555l3.437,64.393c0.428,8.024,7.06,14.311,15.095,14.311h75.858        c8.158,0,14.844-6.473,15.109-14.626l2.064-63.537c0.236-7.284-4.742-13.721-11.866-15.257        c-18.426-3.973-54.679-9.45-88.231-0.772C2307.606,798.883,2302.777,805.313,2303.163,812.555z"/>
						<path style="opacity:0.38;fill:none;" d="M2309.056,919.01L2309.056,919.01c0.548,7.925,7.137,14.073,15.081,14.073h72.625        c8.468,0,15.284-6.955,15.114-15.421l0,0c-0.165-8.229-6.883-14.813-15.114-14.813h-72.625        C2315.377,902.85,2308.452,910.272,2309.056,919.01z"/>
					</g>
					
						<linearGradient id="SVGID_00000059285445450756028440000011021681008416908720_" gradientUnits="userSpaceOnUse" x1="3087.481" y1="299.2732" x2="1531.9189" y2="1256.542">
						<stop offset="0" style="stop-color:#A737D5"/>
						<stop offset="1" style="stop-color:#EF497A"/>
					</linearGradient>
					<path style="fill:url(#SVGID_00000059285445450756028440000011021681008416908720_);" d="M1797.301,806.952l-5.581,432.616       h251.38l-18.822-421.102c-0.543-12.156-8.393-22.742-19.851-26.838c-31.238-11.167-99.271-27.536-191.397-4.535       C1803.892,789.375,1797.422,797.533,1797.301,806.952z"/>
					<g>
						
							<linearGradient id="SVGID_00000072971771175799702900000000848616949027683216_" gradientUnits="userSpaceOnUse" x1="2110.7844" y1="808.7637" x2="1615.0559" y2="2184.8359">
							<stop offset="0" style="stop-color:#CB236D"/>
							<stop offset="1" style="stop-color:#4C246D"/>
						</linearGradient>
						<path style="fill:url(#SVGID_00000072971771175799702900000000848616949027683216_);" d="M1948.687,817.45l17.548,423.593        h149.82l11.355-428.331c0.312-11.773-7.21-22.427-18.49-25.813c-48.717-14.626-97.107-16.06-144.92,5.785        C1954.345,797.096,1948.248,806.844,1948.687,817.45z"/>
						<path style="opacity:0.57;fill:none;" d="M1962.331,833.347l1.783,23.032c0.54,6.977,6.566,12.238,13.553,11.831        l122.406-7.122c6.426-0.374,11.583-5.446,12.063-11.865l1.19-15.91c0.557-7.451-5.338-13.803-12.809-13.803h-125.379        C1967.653,819.511,1961.753,825.885,1962.331,833.347z"/>
						<path style="opacity:0.57;fill:none;" d="M1967.384,888.385v8.406c0,6.491,5.405,11.675,11.89,11.405l117.257-4.89        c6.114-0.255,10.939-5.286,10.939-11.405v-8.917c0-6.51-5.436-11.702-11.94-11.403l-117.256,5.401        C1972.179,877.264,1967.384,882.286,1967.384,888.385z"/>
					</g>
				</g>
				
					<linearGradient id="SVGID_00000154424954232276104670000004937500113001556881_" gradientUnits="userSpaceOnUse" x1="2191.7429" y1="423.918" x2="2478.5481" y2="3558.2854">
					<stop offset="0" style="stop-color:#53D8FF"/>
					<stop offset="1" style="stop-color:#3840F7"/>
				</linearGradient>
				<path style="fill:url(#SVGID_00000154424954232276104670000004937500113001556881_);" d="M2787.667,1363.601H1756.419      c-6.092,0-11.03-4.938-11.03-11.03V1250.39c0-6.092,4.938-11.03,11.03-11.03h1031.247c6.092,0,11.03,4.938,11.03,11.03v102.181      C2798.697,1358.662,2793.758,1363.601,2787.667,1363.601z"/>
			</g>
		</g>
		<g>
			<g>
				
					<linearGradient id="SVGID_00000183958583001687516420000008422980665179668657_" gradientUnits="userSpaceOnUse" x1="3275.4465" y1="1911.304" x2="3749.0559" y2="2864.4436" gradientTransform="matrix(0.9982 0.0597 -0.0597 0.9982 -440.4528 -277.2218)">
					<stop offset="0" style="stop-color:#53D8FF"/>
					<stop offset="1" style="stop-color:#3840F7"/>
				</linearGradient>
				<path style="fill:url(#SVGID_00000183958583001687516420000008422980665179668657_);" d="M2762.76,1802.536      c-1.847-3.363-6.931-2.186-7.032,1.649c-1.594,60.27-0.159,275.548,96.436,362.242      c112.867,101.298,188.491,118.979,186.954,309.983c-1.521,188.997-25.547,526.602,12.614,622.055      c0.719,1.8,2.397,3.028,4.333,3.144l0,0c3.201,0.191,5.742-2.646,5.19-5.805c-5.043-28.873-25.259-153.967-18.973-270.815      c7.163-133.146,65.785-469.394-8.318-717.878C2964.521,1874.254,2809.068,1886.839,2762.76,1802.536z"/>
				
					<linearGradient id="SVGID_00000031909535326469851730000002604327569899738508_" gradientUnits="userSpaceOnUse" x1="3500.6731" y1="2833.9785" x2="3805.552" y2="2120.6218" gradientTransform="matrix(0.9947 0.1026 -0.1026 0.9947 -202.671 -320.9035)">
					<stop offset="0" style="stop-color:#53D8FF"/>
					<stop offset="1" style="stop-color:#3840F7"/>
				</linearGradient>
				<path style="fill:url(#SVGID_00000031909535326469851730000002604327569899738508_);" d="M3049.133,3147.169      c-2.631-0.271-4.758-2.239-5.216-4.844c-4.916-27.956-29.724-182.768,7.239-268.585      c40.739-94.582,110.949-184.923,57.964-399.414c-30.017-121.514-21.601-189.548-16.556-213.292      c0.763-3.592,5.551-4.339,7.34-1.132c22.376,40.109,115.842,209.075,132.352,262.25      c18.782,60.495,36.905,179.499-56.091,241.187c-91.534,60.719-123.871,197.362-120.716,376.424      C3055.672,3152.434,3053.25,3147.594,3049.133,3147.169L3049.133,3147.169z"/>
				
					<linearGradient id="SVGID_00000004508305059749091270000015615035764144546454_" gradientUnits="userSpaceOnUse" x1="86.4902" y1="2522.2288" x2="-404.3462" y2="3221.5625" gradientTransform="matrix(-0.9971 -0.0759 -0.0848 1.1133 2927.7849 -664.6444)">
					<stop offset="0" style="stop-color:#53D8FF"/>
					<stop offset="1" style="stop-color:#3840F7"/>
				</linearGradient>
				<path style="fill:url(#SVGID_00000004508305059749091270000015615035764144546454_);" d="M3017.553,3028.018      c3.816,0.312,11.856,32.636,13.592,28.539c15.397-36.347,78.007-247.323-2.195-391.407      c-83.642-150.265-162.167-181.859-167.191-261.912c-0.307-4.891-5.752-6.22-7.655-1.823      c-26.998,62.393-108.199,281.611,18.309,412.966c125.528,130.338,139.404,177.172,136.611,201.312      C3008.295,3021.987,3012.244,3027.583,3017.553,3028.018L3017.553,3028.018z"/>
				<path style="opacity:0.47;fill:none;" d="M2814.471,1899.92c9.192,5.57,17.941,11.714,26.484,18.171      c8.565,6.422,16.863,13.198,24.966,20.202c8.138,6.97,15.935,14.322,23.678,21.737c3.853,3.726,7.542,7.615,11.323,11.417      c3.729,3.853,7.35,7.808,11.032,11.709c14.398,15.901,27.994,32.556,40.507,50.005l4.72,6.524l4.528,6.659      c2.967,4.474,6.118,8.826,8.908,13.418l8.564,13.645l8.073,13.944c10.388,18.802,19.973,38.066,28.122,57.954      c2.117,4.936,3.849,10.031,5.79,15.036l2.836,7.538c0.904,2.528,1.689,5.099,2.539,7.646c1.654,5.109,3.369,10.197,4.969,15.32      l4.263,15.53c1.509,5.152,2.61,10.409,3.767,15.649c1.106,5.25,2.445,10.448,3.356,15.733c1.786,10.58,3.74,21.123,4.73,31.804      c2.762,21.255,3.295,42.711,3.106,64.053c-0.009,0.962-0.795,1.734-1.757,1.726c-0.932-0.009-1.687-0.748-1.725-1.67      l-0.002-0.046c-1.652-42.373-7.904-84.468-19.859-124.935l-4.568-15.139l-5.191-14.933c-0.885-2.481-1.705-4.986-2.643-7.447      l-2.938-7.338c-2.008-4.871-3.802-9.827-5.982-14.625c-8.26-19.388-17.849-38.183-28.256-56.496      c-20.903-36.612-46.029-70.716-73.749-102.521c-3.503-3.944-6.947-7.944-10.501-11.848c-3.601-3.857-7.134-7.784-10.793-11.59      c-7.242-7.688-14.638-15.243-22.233-22.599c-15.117-14.778-30.836-29.055-47.335-42.348l-0.035-0.028      c-0.489-0.394-0.566-1.11-0.172-1.599C2813.358,1899.73,2813.991,1899.629,2814.471,1899.92z"/>
				<path style="opacity:0.47;fill:none;" d="M2852.66,2460.625c-0.274,23.062,3.751,45.879,10.43,67.862      c3.351,10.992,7.488,21.746,12.426,32.106c4.89,10.382,10.525,20.412,16.973,29.848c6.44,9.429,13.442,18.489,21.268,26.706      c7.831,8.204,16.253,15.754,25.115,22.652l6.749,5.019l6.405,4.669c2.151,1.502,4.196,3.151,6.24,4.801      c2.038,1.657,4.144,3.228,6.081,5.013c8.034,6.786,15.439,14.351,22.287,22.414c27.758,32.091,43.848,74.432,48.001,118.348      c4.546,44.041-1.038,89.179-11.369,132.816c-0.264,1.092,0.352,2.204,1.375,2.487c0.969,0.267,1.963-0.327,2.288-1.316      c3.447-10.756,6.66-21.63,9.283-32.692c2.601-11.065,4.839-22.248,6.629-33.547c1.762-11.305,2.942-22.737,3.51-34.234      c0.616-11.495,0.564-23.07-0.218-34.621c-1.593-23.069-5.939-46.217-14.22-67.946c-8.132-21.741-19.746-42.187-34.538-59.59      c-7.338-8.739-15.273-16.917-23.829-24.233c-2.073-1.922-4.304-3.618-6.475-5.4c-2.176-1.774-4.355-3.546-6.633-5.16      l-13.064-9.534c-16.697-12.635-31.651-27.844-44.239-45.153c-6.255-8.681-12.028-17.795-17.184-27.335      c-5.111-9.565-9.663-19.509-13.675-29.733c-7.837-20.482-13.737-42.185-16.505-64.323l-0.015-0.123      c-0.113-0.909-0.896-1.548-1.748-1.425C2853.234,2459.11,2852.669,2459.812,2852.66,2460.625z"/>
			</g>
			
				<linearGradient id="SVGID_00000150811473713408478810000005411813478559029909_" gradientUnits="userSpaceOnUse" x1="-1676.1918" y1="3443.9502" x2="-969.4272" y2="2352.2524" gradientTransform="matrix(-1 0 0 1 1574.4001 0)">
				<stop offset="0" style="stop-color:#B37CFF"/>
				<stop offset="1" style="stop-color:#F895E7"/>
			</linearGradient>
			<path style="fill:url(#SVGID_00000150811473713408478810000005411813478559029909_);" d="M2905.4,3019.377h222.644     c16.665,0,29.131,15.685,26.037,32.06c-13.294,70.36-40.219,132.522-68.204,184.527c-6.252,11.618-18.358,19.037-31.552,19.037     h-72.651c-13.396,0-25.681-7.284-32.133-19.024c-34.931-63.561-52.004-126.633-66.249-188.349     C2880.01,3033.408,2890.806,3019.377,2905.4,3019.377z"/>
		</g>
	</g>
</g>
</svg>